<?xml version="1.0" standalone="no"?>
<!DOCTYPE svg PUBLIC "-//W3C//DTD SVG 20010904//EN"
 "http://www.w3.org/TR/2001/REC-SVG-20010904/DTD/svg10.dtd">
<svg version="1.0" xmlns="http://www.w3.org/2000/svg"
 width="500.000000pt" height="500.000000pt" viewBox="0 0 500.000000 500.000000"
 preserveAspectRatio="xMidYMid meet">
<metadata>
Created by potrace 1.14, written by Peter Selinger 2001-2017
</metadata>
<g transform="translate(0.000000,500.000000) scale(0.100000,-0.100000)"
fill="#000000" stroke="none">
<path d="M650 2515 l0 -617 353 4 c395 5 408 7 556 79 239 117 363 382 307
658 -39 192 -141 325 -314 411 -133 66 -180 72 -559 78 l-343 4 0 -617z m732
338 c81 -38 142 -97 177 -172 23 -50 26 -68 26 -166 0 -98 -3 -116 -26 -166
-52 -111 -138 -177 -266 -204 -41 -9 -126 -15 -215 -15 l-148 0 0 381 0 381
193 -4 c192 -3 192 -3 259 -35z"/>
<path d="M3044 3113 c4 -10 122 -287 264 -615 l257 -598 141 0 140 0 259 597
c142 328 260 605 263 615 4 17 -5 18 -132 18 l-135 0 -15 -27 c-7 -16 -91
-208 -186 -428 -95 -220 -176 -404 -180 -408 -4 -4 -74 149 -155 340 -82 191
-165 386 -185 433 l-36 85 -153 3 c-143 2 -153 1 -147 -15z"/>
<path d="M2413 2850 c-184 -33 -331 -156 -382 -320 -28 -91 -34 -154 -21 -235
30 -192 168 -338 366 -389 79 -20 251 -21 327 -1 73 19 141 54 192 97 l39 35
-69 75 c-39 42 -74 76 -78 77 -5 1 -23 -10 -41 -24 -51 -39 -110 -55 -200 -55
-90 0 -149 21 -199 68 -25 23 -67 91 -67 107 0 3 159 5 354 5 l354 0 7 48 c14
103 -27 242 -100 343 -92 124 -306 200 -482 169z m170 -211 c66 -18 134 -91
151 -161 l6 -28 -230 0 c-225 0 -230 0 -230 20 0 26 26 78 54 108 55 61 159
86 249 61z"/>
</g>
</svg>
